<svg width="520" height="180" viewBox="0 0 520 180" fill="none" xmlns="http://www.w3.org/2000/svg" role="img" aria-label="RunLedger logo variant C">
  <rect width="520" height="180" rx="28" fill="#F5F8FC"/>
  <rect x="0.5" y="0.5" width="519" height="179" rx="27.5" stroke="#D7E1EC"/>
  <g transform="translate(42 34)">
    <rect width="112" height="112" rx="28" fill="#EAF1F8"/>
    <path d="M25 86V32C25 22.6 32.6 15 42 15H76C93.5 15 103 26.2 103 41.5C103 56.7 92.7 66.5 75.5 66.5H61L84.5 86H103" stroke="#23364F" stroke-width="8.5" stroke-linecap="round" stroke-linejoin="round"/>
    <path d="M25 86L52 45.5" stroke="#5F7FA0" stroke-width="8.5" stroke-linecap="round"/>
    <path d="M40 86H104" stroke="#23364F" stroke-width="8.5" stroke-linecap="round"/>
    <circle cx="97" cy="18" r="7" fill="#5F7FA0"/>
    <path d="M17 25H32" stroke="#AFC0D2" stroke-width="5" stroke-linecap="round"/>
    <path d="M17 43H28" stroke="#AFC0D2" stroke-width="5" stroke-linecap="round"/>
  </g>
  <text x="188" y="83" fill="#162338" font-family="Sora, Segoe UI, Arial, sans-serif" font-size="38" font-weight="700" letter-spacing="-1.4">RunLedger</text>
  <text x="190" y="112" fill="#55799E" font-family="Instrument Sans, Segoe UI, Arial, sans-serif" font-size="13" font-weight="700" letter-spacing="4">AI OPERATIONS INTELLIGENCE</text>
  <text x="42" y="154" fill="#66768A" font-family="Instrument Sans, Segoe UI, Arial, sans-serif" font-size="12" font-weight="600">Variant C: ledger lines plus RL, best fit for observability + FinOps</text>
</svg>
